# AST/ASF file generated using VICON BodyLanguage
# -----------------------------------------------
:version 1.10
:name VICON
:units
  mass 1.0
  length 0.45
  angle deg
:documentation
   .ast/.asf automatically generated from VICON data using
   VICON BodyBuilder and BodyLanguage model FoxedUp or BRILLIANT.MOD
:root
   order TX TY TZ RX RY RZ
   axis XYZ
   position 0 0 0  
   orientation 0 0 0 
:bonedata
  begin
     id 1 
     name lhipjoint
     direction 0.561145 -0.797705 0.220866 
     length 2.46425 
     axis 0 0 0  XYZ
  end
  begin
     id 2 
     name lfemur
     direction 0.34202 -0.939693 0  
     length 7.95556  
     axis 0 0 20  XYZ
    dof rx ry rz
    limits (-160.0 20.0)
           (-70.0 70.0)
           (-60.0 70.0)
  end
  begin
     id 3 
     name ltibia
     direction 0.34202 -0.939693 0   
     length 7.9832   
     axis 0 0 20   XYZ
    dof rx
    limits (-10.0 170.0)
  end
  begin
     id 4 
     name lfoot
     direction 0.0723927 -0.198897 0.977343   
     length 2.23085   
     axis -90 7.62852e-016 20   XYZ
    dof rx rz
    limits (-45.0 90.0)
           (-70.0 20.0)
  end
  begin
     id 5 
     name ltoes
     direction 1.53826e-011 -4.21988e-011 1   
     length 1.12127   
     axis -90 7.62852e-016 20   XYZ
    dof rx
    limits (-90.0 20.0)
  end
  begin
     id 6 
     name rhipjoint
     direction -0.610499 -0.763299 0.21134   
     length 2.57533  
     axis 0 0 0  XYZ 
  end
  begin
     id 7 
     name rfemur
     direction -0.34202 -0.939693 0   
     length 8.65257   
     axis 0 0 -20   XYZ
    dof rx ry rz
    limits (-160.0 20.0)
           (-70.0 70.0)
           (-70.0 60.0)
  end
  begin
     id 8 
     name rtibia
     direction -0.342021 -0.939692 0   
     length 7.37807   
     axis 0 0 -20   XYZ
    dof rx
    limits (-10.0 170.0)
 end
 begin
     id 9 
     name rfoot
     direction -0.0239304 -0.0543852 0.998233   
     length 1.87018  
     axis -90 -7.62852e-016 -20   XYZ
    dof rx rz
    limits (-45.0 90.0)
           (-20.0 70.0)
  end
  begin
     id 10 
     name rtoes
     direction -1.53584e-011 -4.2242e-011 1   
     length 0.951568   
     axis -90 -7.62852e-016 -20   XYZ
    dof rx
    limits (-90.0 20.0)
  end
  begin
     id 11 
     name lowerback
     direction 0.00322089 0.999033 0.0438587   
     length 2.07568   
     axis 0 0 0   XYZ
    dof rx ry rz
    limits (-20.0 45.0)
           (-30.0 30.0)
           (-30.0 30.0)
  end
  begin
     id 12 
     name upperback
     direction -0.00321932 0.999732 -0.0229403   
     length 2.06253   
     axis 0 0 0   XYZ
    dof rx ry rz
    limits (-20.0 45.0)
           (-30.0 30.0)
           (-30.0 30.0)
  end
  begin
     id 13 
     name thorax
     direction -0.00537537 0.998955 -0.0453918   
     length 2.06975   
     axis 0 0 0   XYZ
    dof rx ry rz
    limits (-20.0 45.0)
           (-30.0 30.0)
           (-30.0 30.0)
  end
  begin
     id 14 
     name lowerneck
     direction -0.00013604 0.994111 0.108363   
     length 1.50836   
     axis 0 0 0   XYZ
    dof rx ry rz
    limits (-20.0 45.0)
           (-30.0 30.0)
           (-30.0 30.0)
  end
  begin
     id 15 
     name upperneck
     direction 0.0397262 0.983859 -0.174482   
     length 1.53037   
     axis 0 0 0   XYZ
    dof rx ry rz
    limits (-20.0 45.0)
           (-30.0 30.0)
           (-30.0 30.0)
  end
  begin
     id 16
     name head
     direction 0.0109991 0.997082 -0.0755378  
     length 1.56928  
     axis 0 0 0   XYZ
    dof rx ry rz
    limits (-20.0 45.0)
           (-30.0 30.0)
           (-30.0 30.0)
  end
  begin
     id 17 
     name lclavicle
     direction 0.964749 0.254 -0.068874  
     length 3.26503  
     axis 0 0 0   XYZ
    dof ry rz
    limits (-20.0 10.0)
           (0.0 20.0)
  end
  begin
     id 18 
     name lhumerus
     direction 1 -4.48941e-011 -2.05079e-027   
     length 5.68236   
     axis 180 -30 -90   XYZ
    dof rx ry rz
    limits (-60.0 90.0)
           (-90.0 90.0)
           (-90.0 90.0)
  end
  begin
     id 19
     name lradius
     direction 1 -4.48956e-011 6.2882e-027   
     length 3.17112   
     axis 180 -30 -90   XYZ
    dof rx
    limits (-10.0 170.0)
  end
  begin
     id 20
     name lwrist
     direction 1 -4.49014e-011 1.73219e-026   
     length 1.58556   
     axis -1.04724e-014 90 90   XYZ
    dof ry
    limits (-180.0 0.0)
 end
  begin
     id 21 
     name lhand
     direction 1 -4.49312e-011 3.46438e-026   
     length 0.632691   
     axis -2.21057e-014 90 90   XYZ
    dof rx rz
    limits (-90.0 90.0)
           (-45.0 45.0)
  end
  begin
     id 22 
     name lfingers
     direction 1 -4.48894e-011 6.92876e-026   
     length 0.510091   
     axis -4.42114e-014 90 90   XYZ
    dof rx
    limits (0.0 90.0)
  end
  begin
     id 23
     name lthumb
     direction 0.707107 -6.34705e-011 0.707107   
     length 0.732392   
     axis -90 45 2.85299e-015   XYZ
    dof rx rz
    limits (-45.0 45.0)
           (-45.0 45.0)
  end
  begin
     id 24 
     name rclavicle
     direction -0.954374 0.280496 -0.102435   
     length 3.25419  
     axis 0 0 0   XYZ 
    dof ry rz
    limits (-10.0 20.0)
           (-20.0 0.0)
  end
  begin
     id 25 
     name rhumerus
     direction -1 -4.48994e-011 -1.07204e-017  
     length 5.8712   
     axis 180 30 90   XYZ
    dof rx ry rz
    limits (-90.0 60.0)
           (-90.0 90.0)
           (-90.0 90.0)
  end
  begin
     id 26 
     name rradius
     direction -1 -4.48972e-011 5.89292e-027   
     length 3.37589   
     axis 180 30 90   XYZ
    dof rx
    limits (-10.0 170.0)
  end
  begin
     id 27 
     name rwrist
     direction -1 -4.48942e-011 1.73219e-026   
     length 1.68794   
     axis -1.04724e-014 -90 -90   XYZ
    dof ry
    limits (-180.0 0.0)
  end
  begin
     id 28
     name rhand
     direction -1 -4.48514e-011 3.46438e-026   
     length 0.603257   
     axis -2.21057e-014 -90 -90   XYZ
    dof rx rz
    limits (-90.0 90.0)
           (-45.0 45.0)
  end
  begin
     id 29
     name rfingers
     direction -1 -4.50028e-011 6.92876e-026   
     length 0.486362   
     axis -4.42114e-014 -90 -90   XYZ
    dof rx
    limits (0.0 90.0)
  end
  begin
     id 30
     name rthumb
     direction -0.707107 -6.34926e-011 0.707107   
     length 0.698321   
     axis -90 -45 -2.85299e-015   XYZ
    dof rx rz
    limits (-45.0 45.0)
           (-45.0 45.0)
  end
:hierarchy
  begin
    root lhipjoint rhipjoint lowerback
    lhipjoint lfemur
    lfemur ltibia
    ltibia lfoot
    lfoot ltoes
    rhipjoint rfemur
    rfemur rtibia
    rtibia rfoot
    rfoot rtoes
    lowerback upperback
    upperback thorax
    thorax lowerneck lclavicle rclavicle
    lowerneck upperneck
    upperneck head
    lclavicle lhumerus
    lhumerus lradius
    lradius lwrist
    lwrist lhand lthumb
    lhand lfingers
    rclavicle rhumerus
    rhumerus rradius
    rradius rwrist
    rwrist rhand rthumb
    rhand rfingers
  end

#!OML:ASF I:\Segmentation\Patient Classification 1\Patient 1\Session 1\Patient1.ASF
:FULLY-SPECIFIED
:DEGREES
4345
root 1.83212 18.1761 13.7499 -379.145 84.1579 -26.7482
lowerback -10.4606 2.37636 0.559195
upperback 1.70475 3.03542 0.923145
thorax 7.65697 1.48424 1.17324
lowerneck -19.5809 1.1766 0.966257
upperneck 15.0454 1.54145 -1.03995
head 7.87938 0.686494 -0.313469
rclavicle 1.52567e-014 -2.5345e-015
rhumerus -24.8238 -0.316669 -81.4874
rradius 36.2372
rwrist 14.326
rhand -17.4856 27.1901
rfingers 7.12502
rthumb 8.76677 -2.60781
lclavicle 1.52567e-014 -2.5345e-015
lhumerus -32.6502 5.21582 82.032
lradius 27.3686
lwrist 7.34017
lhand -9.22417 33.0529
lfingers 7.12502
lthumb 16.7306 62.352
rfemur 6.85022 2.68385 26.7626
rtibia 15.4577
rfoot 12.7506 4.29566
rtoes 45.3907
lfemur -32.1454 -2.35543 -20.5441
ltibia 18.5267
lfoot -7.40791 17.3243
ltoes -3.00526
4346
root 1.97008 18.1829 13.7566 -377.376 84.1309 -25.0667
lowerback -10.5816 2.27909 0.288295
upperback 1.61737 2.94794 0.813336
thorax 7.62551 1.43215 1.19731
lowerneck -19.5543 1.22756 0.995045
upperneck 14.8413 1.59426 -1.01451
head 7.80723 0.715862 -0.30373
rclavicle -3.30247e-014 8.4235e-015
rhumerus -25.3929 -0.839864 -81.4526
rradius 35.9265
rwrist 14.5181
rhand -17.5071 27.2199
rfingers 7.12502
rthumb 8.74601 -2.57894
lclavicle -3.30247e-014 8.4235e-015
lhumerus -32.7655 5.43209 81.6896
lradius 26.9238
lwrist 7.0259
lhand -9.16998 33.1775
lfingers 7.12502
lthumb 16.7828 62.4722
rfemur 7.16159 2.99935 26.6197
rtibia 15.4942
rfoot 12.4745 3.99098
rtoes 44.9024
lfemur -32.3207 -1.84882 -20.9166
ltibia 19.5276
lfoot -7.02085 17.0852
ltoes -3.73577
4347
root 2.10708 18.1911 13.7632 -375.761 84.1273 -23.5458
lowerback -10.6921 2.18307 0.0368435
upperback 1.5199 2.86125 0.691274
thorax 7.57937 1.38203 1.19688
lowerneck -19.4801 1.26786 1.05046
upperneck 14.5982 1.62808 -1.00364
head 7.71431 0.736517 -0.305878
rclavicle -4.29064e-014 -1.53561e-014
rhumerus -25.9909 -1.45104 -81.3935
rradius 35.6051
rwrist 14.7569
rhand -17.4872 27.141
rfingers 7.12502
rthumb 8.7652 -2.65695
lclavicle -4.29064e-014 -1.53561e-014
lhumerus -32.8916 5.55744 81.3614
lradius 26.5315
lwrist 6.72619
lhand -9.12941 33.2834
lfingers 7.12502
lthumb 16.8219 62.5748
rfemur 7.43972 3.26775 26.4739
rtibia 15.5626
rfoot 12.2548 3.64627
rtoes 44.3896
lfemur -32.495 -1.40731 -21.2705
ltibia 20.5292
lfoot -6.86994 16.5437
ltoes -4.22766
4348
root 2.24321 18.1997 13.769 -374.228 84.1501 -22.1175
lowerback -10.803 2.08083 -0.208617
upperback 1.4197 2.76623 0.568121
thorax 7.53144 1.32847 1.1905
lowerneck -19.4065 1.30791 1.1036
upperneck 14.3496 1.66274 -0.994303
head 7.61995 0.757254 -0.308145
rclavicle 1.59276e-014 4.67144e-015
rhumerus -26.5959 -2.12532 -81.296
rradius 35.2661
rwrist 14.9891
rhand -17.3862 26.9925
rfingers 7.12502
rthumb 8.86267 -2.80136
lclavicle 1.59276e-014 4.67144e-015
lhumerus -33.0252 5.62053 81.0633
lradius 26.1967
lwrist 6.42679
lhand -9.11024 33.3986
lfingers 7.12502
lthumb 16.8403 62.6884
rfemur 7.66757 3.49732 26.3145
rtibia 15.6912
rfoot 12.122 3.23365
rtoes 43.9538
lfemur -32.653 -1.10527 -21.5844
ltibia 21.4892
lfoot -6.95036 15.8289
ltoes -4.4873
4349
root 2.37838 18.2076 13.7739 -372.847 84.1979 -20.8506
lowerback -10.9139 1.96925 -0.444965
upperback 1.31959 2.65741 0.455631
thorax 7.48419 1.26864 1.1879
lowerneck -19.3714 1.35231 1.12538
upperneck 14.1356 1.7095 -0.970058
head 7.54348 0.78328 -0.29874
rclavicle 4.81804e-014 3.18055e-015
rhumerus -27.2015 -2.83544 -81.1479
rradius 34.8954
rwrist 15.1944
rhand -17.275 26.8656
rfingers 7.12502
rthumb 8.97002 -2.92374
lclavicle 4.81804e-014 3.18055e-015
lhumerus -33.1542 5.64989 80.8034
lradius 25.9058
lwrist 6.13395
lhand -9.11244 33.5109
lfingers 7.12502
lthumb 16.8382 62.8009
rfemur 7.83099 3.69125 26.1501
rtibia 15.9091
rfoot 12.0984 2.74736
rtoes 43.6486
lfemur -32.7847 -0.965086 -21.842
ltibia 22.38
lfoot -7.17494 15.1139
ltoes -4.73405
4350
root 2.51234 18.2144 13.7779 -371.764 84.2572 -19.8858
lowerback -11.0189 1.8561 -0.652294
upperback 1.22409 2.5421 0.358095
thorax 7.43979 1.20678 1.18355
lowerneck -19.388 1.40091 1.12268
upperneck 13.9726 1.76691 -0.934675
head 7.49251 0.813905 -0.280091
rclavicle 9.88954e-015 -1.98785e-016
rhumerus -27.8111 -3.56486 -80.948
rradius 34.4923
rwrist 15.3832
rhand -17.2539 26.8312
rfingers 7.12502
rthumb 8.99034 -2.95727
lclavicle 9.88954e-015 -1.98785e-016
lhumerus -33.2559 5.6401 80.5846
lradius 25.6499
lwrist 5.8823
lhand -9.12688 33.5923
lfingers 7.12502
lthumb 16.8243 62.8834
rfemur 7.92618 3.84454 26.0017
rtibia 16.2322
rfoot 12.1798 2.21297
rtoes 43.4271
lfemur -32.8815 -0.949599 -22.0341
ltibia 23.1884
lfoot -7.44724 14.5549
ltoes -5.23187
